<svg width="304" height="62" viewBox="0 0 304 62" fill="none" xmlns="http://www.w3.org/2000/svg">
<g clip-path="url(#clip0)">
<g filter="url(#filter0_d)">
<path d="M90.62 22.7L95.87 32.72L101.21 22.7H105.68L97.94 36.56V44H93.83V36.5L86.12 22.7H90.62ZM113.641 44.3C111.921 44.3 110.441 43.93 109.201 43.19C107.981 42.43 107.041 41.43 106.381 40.19C105.721 38.95 105.391 37.61 105.391 36.17C105.391 34.71 105.721 33.36 106.381 32.12C107.061 30.88 108.011 29.89 109.231 29.15C110.471 28.39 111.941 28.01 113.641 28.01C115.341 28.01 116.801 28.39 118.021 29.15C119.261 29.89 120.211 30.88 120.871 32.12C121.531 33.36 121.861 34.71 121.861 36.17C121.861 37.61 121.531 38.95 120.871 40.19C120.211 41.43 119.261 42.43 118.021 43.19C116.801 43.93 115.341 44.3 113.641 44.3ZM109.531 36.17C109.531 37.09 109.711 37.91 110.071 38.63C110.431 39.33 110.921 39.88 111.541 40.28C112.161 40.68 112.861 40.88 113.641 40.88C114.401 40.88 115.091 40.68 115.711 40.28C116.331 39.86 116.821 39.3 117.181 38.6C117.561 37.88 117.751 37.06 117.751 36.14C117.751 35.24 117.561 34.44 117.181 33.74C116.821 33.02 116.331 32.46 115.711 32.06C115.091 31.64 114.401 31.43 113.641 31.43C112.861 31.43 112.161 31.64 111.541 32.06C110.921 32.46 110.431 33.02 110.071 33.74C109.711 34.44 109.531 35.25 109.531 36.17ZM131.864 44.3C130.524 44.3 129.244 44.08 128.024 43.64C126.804 43.2 125.754 42.55 124.874 41.69L126.314 39.08C127.254 39.84 128.174 40.4 129.074 40.76C129.974 41.12 130.854 41.3 131.714 41.3C132.494 41.3 133.114 41.16 133.574 40.88C134.054 40.6 134.294 40.18 134.294 39.62C134.294 39.04 134.004 38.65 133.424 38.45C132.844 38.23 132.034 37.96 130.994 37.64C129.834 37.28 128.864 36.91 128.084 36.53C127.304 36.15 126.714 35.69 126.314 35.15C125.934 34.61 125.744 33.91 125.744 33.05C125.744 31.51 126.324 30.28 127.484 29.36C128.644 28.44 130.184 27.98 132.104 27.98C133.224 27.98 134.284 28.16 135.284 28.52C136.284 28.86 137.194 29.42 138.014 30.2L136.394 32.75C134.854 31.55 133.364 30.95 131.924 30.95C131.284 30.95 130.714 31.07 130.214 31.31C129.734 31.55 129.494 31.97 129.494 32.57C129.494 33.13 129.724 33.53 130.184 33.77C130.664 34.01 131.384 34.27 132.344 34.55C133.584 34.93 134.634 35.3 135.494 35.66C136.374 36.02 137.034 36.48 137.474 37.04C137.934 37.6 138.164 38.36 138.164 39.32C138.164 40.88 137.594 42.1 136.454 42.98C135.314 43.86 133.784 44.3 131.864 44.3ZM149.688 44.3C147.988 44.3 146.518 43.93 145.278 43.19C144.058 42.45 143.108 41.47 142.428 40.25C141.748 39.01 141.408 37.67 141.408 36.23C141.408 34.75 141.738 33.39 142.398 32.15C143.078 30.89 144.038 29.89 145.278 29.15C146.518 28.39 147.998 28.01 149.718 28.01C151.438 28.01 152.908 28.39 154.128 29.15C155.348 29.89 156.278 30.88 156.918 32.12C157.578 33.34 157.908 34.66 157.908 36.08C157.908 36.6 157.878 37.05 157.818 37.43H145.668C145.768 38.65 146.218 39.61 147.018 40.31C147.838 41.01 148.778 41.36 149.838 41.36C150.638 41.36 151.388 41.17 152.088 40.79C152.808 40.39 153.298 39.87 153.558 39.23L157.008 40.19C156.428 41.39 155.498 42.38 154.218 43.16C152.938 43.92 151.428 44.3 149.688 44.3ZM145.578 34.88H153.798C153.678 33.7 153.228 32.75 152.448 32.03C151.688 31.29 150.758 30.92 149.658 30.92C148.578 30.92 147.648 31.29 146.868 32.03C146.108 32.75 145.678 33.7 145.578 34.88ZM162.729 44V32.18H160.659V29.12H162.729V28.16C162.729 26.22 163.199 24.68 164.139 23.54C165.099 22.38 166.379 21.8 167.979 21.8C169.259 21.8 170.549 22.11 171.849 22.73L171.039 25.76C170.739 25.6 170.379 25.47 169.959 25.37C169.559 25.25 169.189 25.19 168.849 25.19C167.449 25.19 166.749 26.13 166.749 28.01V29.12H170.589V32.18H166.749V44H162.729Z" fill="black"/>
<path d="M200.63 38.51C200.63 39.71 200.32 40.72 199.7 41.54C199.08 42.34 198.24 42.95 197.18 43.37C196.14 43.79 195 44 193.76 44H183.47V22.7H194.87C195.87 22.7 196.73 22.97 197.45 23.51C198.17 24.03 198.73 24.71 199.13 25.55C199.53 26.39 199.73 27.25 199.73 28.13C199.73 29.17 199.47 30.15 198.95 31.07C198.43 31.97 197.67 32.64 196.67 33.08C197.89 33.44 198.85 34.09 199.55 35.03C200.27 35.97 200.63 37.13 200.63 38.51ZM187.61 26.24V31.61H193.13C193.81 31.61 194.4 31.37 194.9 30.89C195.4 30.41 195.65 29.75 195.65 28.91C195.65 28.11 195.42 27.47 194.96 26.99C194.52 26.49 193.97 26.24 193.31 26.24H187.61ZM196.46 37.73C196.46 36.95 196.22 36.28 195.74 35.72C195.26 35.16 194.67 34.88 193.97 34.88H187.61V40.49H193.76C194.52 40.49 195.16 40.22 195.68 39.68C196.2 39.14 196.46 38.49 196.46 37.73ZM204.941 22.1H208.961V38.96C208.961 39.7 209.081 40.19 209.321 40.43C209.561 40.67 209.891 40.79 210.311 40.79C210.631 40.79 210.961 40.75 211.301 40.67C211.641 40.59 211.941 40.49 212.201 40.37L212.741 43.43C212.201 43.69 211.571 43.89 210.851 44.03C210.131 44.17 209.481 44.24 208.901 44.24C207.641 44.24 206.661 43.91 205.961 43.25C205.281 42.57 204.941 41.61 204.941 40.37V22.1ZM214.912 39.35C214.912 38.33 215.192 37.44 215.752 36.68C216.332 35.9 217.132 35.3 218.152 34.88C219.172 34.46 220.342 34.25 221.662 34.25C222.322 34.25 222.992 34.31 223.672 34.43C224.352 34.53 224.942 34.68 225.442 34.88V34.04C225.442 33.04 225.142 32.27 224.542 31.73C223.962 31.19 223.092 30.92 221.932 30.92C221.072 30.92 220.252 31.07 219.472 31.37C218.692 31.67 217.872 32.11 217.012 32.69L215.722 30.05C216.762 29.37 217.822 28.86 218.902 28.52C220.002 28.18 221.152 28.01 222.352 28.01C224.592 28.01 226.332 28.57 227.572 29.69C228.832 30.81 229.462 32.41 229.462 34.49V39.5C229.462 39.94 229.532 40.25 229.672 40.43C229.812 40.59 230.062 40.69 230.422 40.73V44C230.062 44.08 229.732 44.13 229.432 44.15C229.152 44.19 228.912 44.21 228.712 44.21C227.912 44.21 227.302 44.03 226.882 43.67C226.462 43.31 226.212 42.87 226.132 42.35L226.042 41.54C225.342 42.44 224.482 43.13 223.462 43.61C222.462 44.07 221.432 44.3 220.372 44.3C219.312 44.3 218.372 44.09 217.552 43.67C216.732 43.23 216.082 42.64 215.602 41.9C215.142 41.14 214.912 40.29 214.912 39.35ZM224.692 40.16C225.192 39.68 225.442 39.22 225.442 38.78V37.19C224.402 36.77 223.352 36.56 222.292 36.56C221.232 36.56 220.372 36.79 219.712 37.25C219.052 37.69 218.722 38.28 218.722 39.02C218.722 39.62 218.962 40.16 219.442 40.64C219.922 41.12 220.612 41.36 221.512 41.36C222.112 41.36 222.692 41.25 223.252 41.03C223.832 40.81 224.312 40.52 224.692 40.16ZM249.329 44H245.309V35.18C245.309 33.92 245.089 33 244.649 32.42C244.209 31.84 243.599 31.55 242.819 31.55C242.279 31.55 241.729 31.69 241.169 31.97C240.629 32.25 240.139 32.64 239.699 33.14C239.259 33.62 238.939 34.18 238.739 34.82V44H234.719V28.28H238.349V31.19C238.929 30.21 239.769 29.44 240.869 28.88C241.969 28.3 243.209 28.01 244.589 28.01C245.569 28.01 246.369 28.19 246.989 28.55C247.609 28.89 248.089 29.36 248.429 29.96C248.769 30.54 248.999 31.2 249.119 31.94C249.259 32.68 249.329 33.43 249.329 34.19V44ZM253.364 36.14C253.364 34.64 253.664 33.27 254.264 32.03C254.864 30.79 255.694 29.81 256.754 29.09C257.814 28.37 259.024 28.01 260.384 28.01C261.544 28.01 262.584 28.3 263.504 28.88C264.444 29.44 265.174 30.16 265.694 31.04V22.1H269.714V39.5C269.714 39.94 269.784 40.25 269.924 40.43C270.064 40.59 270.304 40.69 270.644 40.73V44C269.924 44.14 269.354 44.21 268.934 44.21C268.214 44.21 267.614 44.03 267.134 43.67C266.674 43.31 266.414 42.84 266.354 42.26L266.294 41.27C265.714 42.25 264.924 43 263.924 43.52C262.944 44.04 261.914 44.3 260.834 44.3C259.374 44.3 258.084 43.94 256.964 43.22C255.844 42.48 254.964 41.5 254.324 40.28C253.684 39.04 253.364 37.66 253.364 36.14ZM265.694 38.24V34.49C265.374 33.61 264.824 32.88 264.044 32.3C263.264 31.72 262.464 31.43 261.644 31.43C260.824 31.43 260.104 31.66 259.484 32.12C258.864 32.56 258.384 33.15 258.044 33.89C257.704 34.61 257.534 35.39 257.534 36.23C257.534 37.09 257.724 37.88 258.104 38.6C258.484 39.3 258.994 39.86 259.634 40.28C260.294 40.68 261.044 40.88 261.884 40.88C262.644 40.88 263.394 40.63 264.134 40.13C264.894 39.63 265.414 39 265.694 38.24ZM275.16 26.09V22.1H279.18V26.09H275.16ZM275.16 44V28.28H279.18V44H275.16ZM298.917 44H294.897V35.18C294.897 33.92 294.677 33 294.237 32.42C293.797 31.84 293.187 31.55 292.407 31.55C291.867 31.55 291.317 31.69 290.757 31.97C290.217 32.25 289.727 32.64 289.287 33.14C288.847 33.62 288.527 34.18 288.327 34.82V44H284.307V28.28H287.937V31.19C288.517 30.21 289.357 29.44 290.457 28.88C291.557 28.3 292.797 28.01 294.177 28.01C295.157 28.01 295.957 28.19 296.577 28.55C297.197 28.89 297.677 29.36 298.017 29.96C298.357 30.54 298.587 31.2 298.707 31.94C298.847 32.68 298.917 33.43 298.917 34.19V44Z" fill="#5667FF"/>
</g>
<path d="M33.157 51L7 9L57 11.4407L33.157 51Z" fill="#5667FF" stroke="white" stroke-width="5"/>
<g filter="url(#filter1_d)">
<path d="M61.8684 13.4709L86 56.052H35.9253L61.8684 13.4709Z" fill="#87FFF8"/>
<path d="M61.8684 13.4709L86 56.052H35.9253L61.8684 13.4709Z" stroke="#5667FF" stroke-width="5" stroke-linecap="round" stroke-linejoin="round"/>
</g>
</g>
<defs>
<filter id="filter0_d" x="81.12" y="20.8" width="222.797" height="32.5" filterUnits="userSpaceOnUse" color-interpolation-filters="sRGB">
<feFlood flood-opacity="0" result="BackgroundImageFix"/>
<feColorMatrix in="SourceAlpha" type="matrix" values="0 0 0 0 0 0 0 0 0 0 0 0 0 0 0 0 0 0 127 0"/>
<feOffset dy="4"/>
<feGaussianBlur stdDeviation="2.5"/>
<feColorMatrix type="matrix" values="0 0 0 0 0 0 0 0 0 0 0 0 0 0 0 0 0 0 0.22 0"/>
<feBlend mode="normal" in2="BackgroundImageFix" result="effect1_dropShadow"/>
<feBlend mode="normal" in="SourceGraphic" in2="effect1_dropShadow" result="shape"/>
</filter>
<filter id="filter1_d" x="31.4253" y="10.9709" width="59.0747" height="53.5811" filterUnits="userSpaceOnUse" color-interpolation-filters="sRGB">
<feFlood flood-opacity="0" result="BackgroundImageFix"/>
<feColorMatrix in="SourceAlpha" type="matrix" values="0 0 0 0 0 0 0 0 0 0 0 0 0 0 0 0 0 0 127 0"/>
<feOffset dy="4"/>
<feGaussianBlur stdDeviation="1"/>
<feColorMatrix type="matrix" values="0 0 0 0 0 0 0 0 0 0 0 0 0 0 0 0 0 0 0.1 0"/>
<feBlend mode="normal" in2="BackgroundImageFix" result="effect1_dropShadow"/>
<feBlend mode="normal" in="SourceGraphic" in2="effect1_dropShadow" result="shape"/>
</filter>
<clipPath id="clip0">
<rect width="304" height="62" fill="white"/>
</clipPath>
</defs>
</svg>
