<svg width="331" height="79" viewBox="0 0 331 79" fill="none" xmlns="http://www.w3.org/2000/svg">
<g clip-path="url(#clip0)">
<g filter="url(#filter0_d)">
<path d="M106.62 31.7L111.87 41.72L117.21 31.7H121.68L113.94 45.56V53H109.83V45.5L102.12 31.7H106.62ZM129.641 53.3C127.921 53.3 126.441 52.93 125.201 52.19C123.981 51.43 123.041 50.43 122.381 49.19C121.721 47.95 121.391 46.61 121.391 45.17C121.391 43.71 121.721 42.36 122.381 41.12C123.061 39.88 124.011 38.89 125.231 38.15C126.471 37.39 127.941 37.01 129.641 37.01C131.341 37.01 132.801 37.39 134.021 38.15C135.261 38.89 136.211 39.88 136.871 41.12C137.531 42.36 137.861 43.71 137.861 45.17C137.861 46.61 137.531 47.95 136.871 49.19C136.211 50.43 135.261 51.43 134.021 52.19C132.801 52.93 131.341 53.3 129.641 53.3ZM125.531 45.17C125.531 46.09 125.711 46.91 126.071 47.63C126.431 48.33 126.921 48.88 127.541 49.28C128.161 49.68 128.861 49.88 129.641 49.88C130.401 49.88 131.091 49.68 131.711 49.28C132.331 48.86 132.821 48.3 133.181 47.6C133.561 46.88 133.751 46.06 133.751 45.14C133.751 44.24 133.561 43.44 133.181 42.74C132.821 42.02 132.331 41.46 131.711 41.06C131.091 40.64 130.401 40.43 129.641 40.43C128.861 40.43 128.161 40.64 127.541 41.06C126.921 41.46 126.431 42.02 126.071 42.74C125.711 43.44 125.531 44.25 125.531 45.17ZM147.864 53.3C146.524 53.3 145.244 53.08 144.024 52.64C142.804 52.2 141.754 51.55 140.874 50.69L142.314 48.08C143.254 48.84 144.174 49.4 145.074 49.76C145.974 50.12 146.854 50.3 147.714 50.3C148.494 50.3 149.114 50.16 149.574 49.88C150.054 49.6 150.294 49.18 150.294 48.62C150.294 48.04 150.004 47.65 149.424 47.45C148.844 47.23 148.034 46.96 146.994 46.64C145.834 46.28 144.864 45.91 144.084 45.53C143.304 45.15 142.714 44.69 142.314 44.15C141.934 43.61 141.744 42.91 141.744 42.05C141.744 40.51 142.324 39.28 143.484 38.36C144.644 37.44 146.184 36.98 148.104 36.98C149.224 36.98 150.284 37.16 151.284 37.52C152.284 37.86 153.194 38.42 154.014 39.2L152.394 41.75C150.854 40.55 149.364 39.95 147.924 39.95C147.284 39.95 146.714 40.07 146.214 40.31C145.734 40.55 145.494 40.97 145.494 41.57C145.494 42.13 145.724 42.53 146.184 42.77C146.664 43.01 147.384 43.27 148.344 43.55C149.584 43.93 150.634 44.3 151.494 44.66C152.374 45.02 153.034 45.48 153.474 46.04C153.934 46.6 154.164 47.36 154.164 48.32C154.164 49.88 153.594 51.1 152.454 51.98C151.314 52.86 149.784 53.3 147.864 53.3ZM165.688 53.3C163.988 53.3 162.518 52.93 161.278 52.19C160.058 51.45 159.108 50.47 158.428 49.25C157.748 48.01 157.408 46.67 157.408 45.23C157.408 43.75 157.738 42.39 158.398 41.15C159.078 39.89 160.038 38.89 161.278 38.15C162.518 37.39 163.998 37.01 165.718 37.01C167.438 37.01 168.908 37.39 170.128 38.15C171.348 38.89 172.278 39.88 172.918 41.12C173.578 42.34 173.908 43.66 173.908 45.08C173.908 45.6 173.878 46.05 173.818 46.43H161.668C161.768 47.65 162.218 48.61 163.018 49.31C163.838 50.01 164.778 50.36 165.838 50.36C166.638 50.36 167.388 50.17 168.088 49.79C168.808 49.39 169.298 48.87 169.558 48.23L173.008 49.19C172.428 50.39 171.498 51.38 170.218 52.16C168.938 52.92 167.428 53.3 165.688 53.3ZM161.578 43.88H169.798C169.678 42.7 169.228 41.75 168.448 41.03C167.688 40.29 166.758 39.92 165.658 39.92C164.578 39.92 163.648 40.29 162.868 41.03C162.108 41.75 161.678 42.7 161.578 43.88ZM178.729 53V41.18H176.659V38.12H178.729V37.16C178.729 35.22 179.199 33.68 180.139 32.54C181.099 31.38 182.379 30.8 183.979 30.8C185.259 30.8 186.549 31.11 187.849 31.73L187.039 34.76C186.739 34.6 186.379 34.47 185.959 34.37C185.559 34.25 185.189 34.19 184.849 34.19C183.449 34.19 182.749 35.13 182.749 37.01V38.12H186.589V41.18H182.749V53H178.729Z" fill="white"/>
<path d="M216.63 47.51C216.63 48.71 216.32 49.72 215.7 50.54C215.08 51.34 214.24 51.95 213.18 52.37C212.14 52.79 211 53 209.76 53H199.47V31.7H210.87C211.87 31.7 212.73 31.97 213.45 32.51C214.17 33.03 214.73 33.71 215.13 34.55C215.53 35.39 215.73 36.25 215.73 37.13C215.73 38.17 215.47 39.15 214.95 40.07C214.43 40.97 213.67 41.64 212.67 42.08C213.89 42.44 214.85 43.09 215.55 44.03C216.27 44.97 216.63 46.13 216.63 47.51ZM203.61 35.24V40.61H209.13C209.81 40.61 210.4 40.37 210.9 39.89C211.4 39.41 211.65 38.75 211.65 37.91C211.65 37.11 211.42 36.47 210.96 35.99C210.52 35.49 209.97 35.24 209.31 35.24H203.61ZM212.46 46.73C212.46 45.95 212.22 45.28 211.74 44.72C211.26 44.16 210.67 43.88 209.97 43.88H203.61V49.49H209.76C210.52 49.49 211.16 49.22 211.68 48.68C212.2 48.14 212.46 47.49 212.46 46.73ZM220.941 31.1H224.961V47.96C224.961 48.7 225.081 49.19 225.321 49.43C225.561 49.67 225.891 49.79 226.311 49.79C226.631 49.79 226.961 49.75 227.301 49.67C227.641 49.59 227.941 49.49 228.201 49.37L228.741 52.43C228.201 52.69 227.571 52.89 226.851 53.03C226.131 53.17 225.481 53.24 224.901 53.24C223.641 53.24 222.661 52.91 221.961 52.25C221.281 51.57 220.941 50.61 220.941 49.37V31.1ZM230.912 48.35C230.912 47.33 231.192 46.44 231.752 45.68C232.332 44.9 233.132 44.3 234.152 43.88C235.172 43.46 236.342 43.25 237.662 43.25C238.322 43.25 238.992 43.31 239.672 43.43C240.352 43.53 240.942 43.68 241.442 43.88V43.04C241.442 42.04 241.142 41.27 240.542 40.73C239.962 40.19 239.092 39.92 237.932 39.92C237.072 39.92 236.252 40.07 235.472 40.37C234.692 40.67 233.872 41.11 233.012 41.69L231.722 39.05C232.762 38.37 233.822 37.86 234.902 37.52C236.002 37.18 237.152 37.01 238.352 37.01C240.592 37.01 242.332 37.57 243.572 38.69C244.832 39.81 245.462 41.41 245.462 43.49V48.5C245.462 48.94 245.532 49.25 245.672 49.43C245.812 49.59 246.062 49.69 246.422 49.73V53C246.062 53.08 245.732 53.13 245.432 53.15C245.152 53.19 244.912 53.21 244.712 53.21C243.912 53.21 243.302 53.03 242.882 52.67C242.462 52.31 242.212 51.87 242.132 51.35L242.042 50.54C241.342 51.44 240.482 52.13 239.462 52.61C238.462 53.07 237.432 53.3 236.372 53.3C235.312 53.3 234.372 53.09 233.552 52.67C232.732 52.23 232.082 51.64 231.602 50.9C231.142 50.14 230.912 49.29 230.912 48.35ZM240.692 49.16C241.192 48.68 241.442 48.22 241.442 47.78V46.19C240.402 45.77 239.352 45.56 238.292 45.56C237.232 45.56 236.372 45.79 235.712 46.25C235.052 46.69 234.722 47.28 234.722 48.02C234.722 48.62 234.962 49.16 235.442 49.64C235.922 50.12 236.612 50.36 237.512 50.36C238.112 50.36 238.692 50.25 239.252 50.03C239.832 49.81 240.312 49.52 240.692 49.16ZM265.329 53H261.309V44.18C261.309 42.92 261.089 42 260.649 41.42C260.209 40.84 259.599 40.55 258.819 40.55C258.279 40.55 257.729 40.69 257.169 40.97C256.629 41.25 256.139 41.64 255.699 42.14C255.259 42.62 254.939 43.18 254.739 43.82V53H250.719V37.28H254.349V40.19C254.929 39.21 255.769 38.44 256.869 37.88C257.969 37.3 259.209 37.01 260.589 37.01C261.569 37.01 262.369 37.19 262.989 37.55C263.609 37.89 264.089 38.36 264.429 38.96C264.769 39.54 264.999 40.2 265.119 40.94C265.259 41.68 265.329 42.43 265.329 43.19V53ZM269.364 45.14C269.364 43.64 269.664 42.27 270.264 41.03C270.864 39.79 271.694 38.81 272.754 38.09C273.814 37.37 275.024 37.01 276.384 37.01C277.544 37.01 278.584 37.3 279.504 37.88C280.444 38.44 281.174 39.16 281.694 40.04V31.1H285.714V48.5C285.714 48.94 285.784 49.25 285.924 49.43C286.064 49.59 286.304 49.69 286.644 49.73V53C285.924 53.14 285.354 53.21 284.934 53.21C284.214 53.21 283.614 53.03 283.134 52.67C282.674 52.31 282.414 51.84 282.354 51.26L282.294 50.27C281.714 51.25 280.924 52 279.924 52.52C278.944 53.04 277.914 53.3 276.834 53.3C275.374 53.3 274.084 52.94 272.964 52.22C271.844 51.48 270.964 50.5 270.324 49.28C269.684 48.04 269.364 46.66 269.364 45.14ZM281.694 47.24V43.49C281.374 42.61 280.824 41.88 280.044 41.3C279.264 40.72 278.464 40.43 277.644 40.43C276.824 40.43 276.104 40.66 275.484 41.12C274.864 41.56 274.384 42.15 274.044 42.89C273.704 43.61 273.534 44.39 273.534 45.23C273.534 46.09 273.724 46.88 274.104 47.6C274.484 48.3 274.994 48.86 275.634 49.28C276.294 49.68 277.044 49.88 277.884 49.88C278.644 49.88 279.394 49.63 280.134 49.13C280.894 48.63 281.414 48 281.694 47.24ZM291.16 35.09V31.1H295.18V35.09H291.16ZM291.16 53V37.28H295.18V53H291.16ZM314.917 53H310.897V44.18C310.897 42.92 310.677 42 310.237 41.42C309.797 40.84 309.187 40.55 308.407 40.55C307.867 40.55 307.317 40.69 306.757 40.97C306.217 41.25 305.727 41.64 305.287 42.14C304.847 42.62 304.527 43.18 304.327 43.82V53H300.307V37.28H303.937V40.19C304.517 39.21 305.357 38.44 306.457 37.88C307.557 37.3 308.797 37.01 310.177 37.01C311.157 37.01 311.957 37.19 312.577 37.55C313.197 37.89 313.677 38.36 314.017 38.96C314.357 39.54 314.587 40.2 314.707 40.94C314.847 41.68 314.917 42.43 314.917 43.19V53Z" fill="#5667FF"/>
</g>
<path d="M38.3898 64.0892L6.69092 11.2109L67.2843 14.2837L38.3898 64.0892Z" fill="#5667FF" stroke="black" stroke-width="5"/>
<g filter="url(#filter1_d)">
<path d="M73 16.802L102 70.052H41.8231L73 16.802Z" fill="#87FFF8"/>
<path d="M73 16.802L102 70.052H41.8231L73 16.802Z" stroke="#5667FF" stroke-width="5" stroke-linecap="round" stroke-linejoin="round"/>
</g>
</g>
<defs>
<filter id="filter0_d" x="97.12" y="29.8" width="222.797" height="32.5" filterUnits="userSpaceOnUse" color-interpolation-filters="sRGB">
<feFlood flood-opacity="0" result="BackgroundImageFix"/>
<feColorMatrix in="SourceAlpha" type="matrix" values="0 0 0 0 0 0 0 0 0 0 0 0 0 0 0 0 0 0 127 0"/>
<feOffset dy="4"/>
<feGaussianBlur stdDeviation="2.5"/>
<feColorMatrix type="matrix" values="0 0 0 0 1 0 0 0 0 1 0 0 0 0 1 0 0 0 0.22 0"/>
<feBlend mode="normal" in2="BackgroundImageFix" result="effect1_dropShadow"/>
<feBlend mode="normal" in="SourceGraphic" in2="effect1_dropShadow" result="shape"/>
</filter>
<filter id="filter1_d" x="37.3231" y="14.302" width="69.1769" height="64.25" filterUnits="userSpaceOnUse" color-interpolation-filters="sRGB">
<feFlood flood-opacity="0" result="BackgroundImageFix"/>
<feColorMatrix in="SourceAlpha" type="matrix" values="0 0 0 0 0 0 0 0 0 0 0 0 0 0 0 0 0 0 127 0"/>
<feOffset dy="4"/>
<feGaussianBlur stdDeviation="1"/>
<feColorMatrix type="matrix" values="0 0 0 0 0 0 0 0 0 0 0 0 0 0 0 0 0 0 0.1 0"/>
<feBlend mode="normal" in2="BackgroundImageFix" result="effect1_dropShadow"/>
<feBlend mode="normal" in="SourceGraphic" in2="effect1_dropShadow" result="shape"/>
</filter>
<clipPath id="clip0">
<rect width="331" height="79" fill="white"/>
</clipPath>
</defs>
</svg>
